# Blender v2.90.1 OBJ File: ''
# www.blender.org
mtllib TestPistol.mtl
o Cube
v 1.000000 1.000000 -1.000000
v 1.000000 -1.000000 -1.000000
v 1.000000 1.000000 1.000000
v 1.000000 -1.000000 1.000000
v -1.000000 1.000000 -1.000000
v -1.000000 -1.000000 -1.000000
v -1.000000 1.000000 1.000000
v -1.000000 -1.000000 1.000000
v 1.000000 1.000000 1.000000
v -1.000000 1.000000 1.000000
v 1.000000 1.000000 -1.000000
v -1.000000 1.000000 -1.000000
v 1.000000 2.719129 1.000000
v -1.000000 2.719129 1.000000
v 1.000000 2.719129 -1.000000
v -1.000000 2.719129 -1.000000
v 1.000000 2.804586 0.969068
v -1.000000 2.804586 0.969068
v 1.000000 3.298177 -0.969068
v -1.000000 3.298177 -0.969068
v 1.000000 2.861749 0.966739
v -1.000000 2.861749 0.966739
v 1.000000 3.696451 -0.850752
v -1.000000 3.696451 -0.850752
v 0.642476 2.642517 2.532405
v -0.642476 2.642517 2.532405
v 0.642476 3.925827 2.467484
v -0.642476 3.925827 2.467484
v 0.642476 2.642517 2.532405
v -0.642476 2.642517 2.532405
v 0.642476 3.925827 2.467484
v -0.642476 3.925827 2.467484
v 0.642476 2.642517 2.532405
v -0.642476 2.642517 2.532405
v 0.642476 3.925827 2.467484
v -0.642476 3.925827 2.467484
v 0.642476 2.642517 2.532405
v -0.642476 2.642517 2.532405
v 0.642476 3.925827 2.467484
v -0.642476 3.925827 2.467484
v 0.642476 2.642517 2.532405
v -0.642476 2.642517 2.532405
v 0.642476 3.925827 2.467484
v -0.642476 3.925827 2.467484
v 0.642476 2.642517 2.532405
v -0.642476 2.642517 2.532405
v 0.642476 3.925827 2.467484
v -0.642476 3.925827 2.467484
v 0.642476 2.642517 2.532405
v -0.642476 2.642517 2.532405
v 0.642476 3.925827 2.467484
v -0.642476 3.925827 2.467484
v 0.642476 2.642517 2.532405
v -0.642476 2.642517 2.532405
v 0.642476 3.925827 2.467484
v -0.642476 3.925827 2.467484
v 0.642476 2.642517 2.532405
v -0.642476 2.642517 2.532405
v 0.642476 3.925827 2.467484
v -0.642476 3.925827 2.467484
v 0.642476 2.642517 2.532405
v -0.642476 2.642517 2.532405
v 0.642476 3.925827 2.467484
v -0.642476 3.925827 2.467484
v 0.535863 2.899242 5.496999
v -0.535863 2.899242 5.496999
v 0.535863 3.969599 5.442851
v -0.535863 3.969599 5.442851
v 0.961139 2.509685 6.213821
v -0.961139 2.509685 6.213821
v 0.961139 4.429509 6.116698
v -0.961139 4.429509 6.116698
vt 0.625000 0.250000
vt 0.625000 0.000000
vt 0.625000 0.000000
vt 0.625000 0.250000
vt 0.375000 0.750000
vt 0.625000 0.750000
vt 0.625000 1.000000
vt 0.375000 1.000000
vt 0.375000 0.000000
vt 0.375000 0.250000
vt 0.125000 0.500000
vt 0.375000 0.500000
vt 0.125000 0.750000
vt 0.625000 0.500000
vt 0.625000 0.500000
vt 0.625000 0.250000
vt 0.625000 0.500000
vt 0.625000 0.750000
vt 0.625000 1.000000
vt 0.625000 0.000000
vt 0.625000 0.000000
vt 0.625000 0.250000
vt 0.625000 0.750000
vt 0.625000 1.000000
vt 0.625000 1.000000
vt 0.625000 0.750000
vt 0.625000 0.750000
vt 0.625000 1.000000
vt 0.625000 0.500000
vt 0.625000 0.500000
vt 0.625000 0.250000
vt 0.625000 0.250000
vt 0.625000 0.500000
vt 0.625000 0.000000
vt 0.625000 0.000000
vt 0.625000 0.000000
vt 0.625000 0.250000
vt 0.625000 0.750000
vt 0.625000 1.000000
vt 0.625000 0.500000
vt 0.625000 0.250000
vt 0.625000 0.500000
vt 0.625000 0.750000
vt 0.625000 1.000000
vt 0.625000 0.750000
vt 0.625000 0.500000
vt 0.625000 0.750000
vt 0.625000 0.000000
vt 0.625000 1.000000
vt 0.625000 0.250000
vt 0.625000 0.000000
vt 0.625000 0.000000
vt 0.625000 0.250000
vt 0.625000 1.000000
vt 0.625000 0.500000
vt 0.625000 0.250000
vt 0.625000 0.500000
vt 0.625000 0.750000
vt 0.625000 1.000000
vt 0.625000 0.000000
vt 0.625000 0.000000
vt 0.625000 0.250000
vt 0.625000 0.750000
vt 0.625000 1.000000
vt 0.625000 0.000000
vt 0.625000 0.250000
vt 0.625000 0.750000
vt 0.625000 1.000000
vt 0.625000 0.500000
vt 0.625000 0.500000
vt 0.625000 0.250000
vt 0.625000 0.500000
vt 0.625000 0.750000
vt 0.625000 1.000000
vt 0.625000 0.000000
vt 0.625000 0.000000
vt 0.625000 0.250000
vt 0.625000 0.750000
vt 0.625000 1.000000
vt 0.625000 1.000000
vt 0.625000 0.750000
vt 0.625000 0.750000
vt 0.625000 1.000000
vt 0.625000 0.500000
vt 0.625000 0.500000
vt 0.625000 0.250000
vt 0.625000 0.250000
vt 0.625000 0.500000
vt 0.625000 0.000000
vt 0.875000 0.500000
vt 0.875000 0.750000
vt 0.625000 0.750000
vt 0.625000 0.000000
vt 0.625000 1.000000
vn 0.0000 0.0000 1.0000
vn -1.0000 0.0000 0.0000
vn 0.0000 -1.0000 0.0000
vn 1.0000 0.0000 0.0000
vn 0.0000 0.0000 -1.0000
vn 0.0000 0.0407 0.9992
vn 0.0000 0.3404 0.9403
vn 0.0000 0.0533 -0.9986
vn 0.0000 0.9976 -0.0690
vn 0.0000 0.2848 -0.9586
vn 0.9814 0.1275 0.1434
vn -0.9814 0.1275 0.1434
vn 0.0000 -0.9903 -0.1387
vn 0.0000 -0.9963 0.0863
vn 0.0000 0.8260 -0.5637
vn 0.0000 0.9999 -0.0147
vn 0.9994 0.0018 0.0358
vn -0.9994 0.0018 0.0358
vn 0.0000 0.0505 0.9987
vn 0.8534 -0.0263 -0.5206
vn -0.8534 -0.0263 -0.5206
vn 0.0000 -0.8786 -0.4775
usemtl Material
s off
f 5/1/1 7/2/1 10/3/1 12/4/1
f 4/5/1 3/6/1 7/7/1 8/8/1
f 8/9/2 7/2/2 5/1/2 6/10/2
f 6/11/3 2/12/3 4/5/3 8/13/3
f 2/12/4 1/14/4 3/6/4 4/5/4
f 6/10/5 5/1/5 1/14/5 2/12/5
f 11/15/5 12/4/5 16/16/5 15/17/5
f 3/6/1 1/14/1 11/15/1 9/18/1
f 1/14/1 5/1/1 12/4/1 11/15/1
f 7/7/1 3/6/1 9/18/1 10/19/1
f 16/16/2 14/20/2 18/21/2 20/22/2
f 9/18/4 11/15/4 15/17/4 13/23/4
f 12/4/2 10/3/2 14/20/2 16/16/2
f 10/19/1 9/18/1 13/23/1 14/24/1
f 18/25/6 17/26/6 21/27/6 22/28/6
f 14/24/7 13/23/7 17/26/7 18/25/7
f 15/17/8 16/16/8 20/22/8 19/29/8
f 13/23/4 15/17/4 19/29/4 17/26/4
f 23/30/9 24/31/9 28/32/9 27/33/9
f 19/29/10 20/22/10 24/31/10 23/30/10
f 17/26/4 19/29/4 23/30/4 21/27/4
f 20/22/2 18/21/2 22/34/2 24/31/2
f 28/32/1 26/35/1 30/36/1 32/37/1
f 21/27/11 23/30/11 27/33/11 25/38/11
f 24/31/12 22/34/12 26/35/12 28/32/12
f 22/28/13 21/27/13 25/38/13 26/39/13
f 31/40/1 32/37/1 36/41/1 35/42/1
f 26/39/1 25/38/1 29/43/1 30/44/1
f 27/33/1 28/32/1 32/37/1 31/40/1
f 25/38/1 27/33/1 31/40/1 29/43/1
f 33/45/1 35/42/1 39/46/1 37/47/1
f 29/43/1 31/40/1 35/42/1 33/45/1
f 32/37/1 30/36/1 34/48/1 36/41/1
f 30/44/1 29/43/1 33/45/1 34/49/1
f 40/50/1 38/51/1 42/52/1 44/53/1
f 36/41/1 34/48/1 38/51/1 40/50/1
f 34/49/1 33/45/1 37/47/1 38/54/1
f 35/42/1 36/41/1 40/50/1 39/46/1
f 43/55/1 44/53/1 48/56/1 47/57/1
f 38/54/1 37/47/1 41/58/1 42/59/1
f 39/46/1 40/50/1 44/53/1 43/55/1
f 37/47/1 39/46/1 43/55/1 41/58/1
f 48/56/1 46/60/1 50/61/1 52/62/1
f 41/58/1 43/55/1 47/57/1 45/63/1
f 44/53/1 42/52/1 46/60/1 48/56/1
f 42/59/1 41/58/1 45/63/1 46/64/1
f 52/62/1 50/61/1 54/65/1 56/66/1
f 46/64/1 45/63/1 49/67/1 50/68/1
f 47/57/1 48/56/1 52/62/1 51/69/1
f 45/63/1 47/57/1 51/69/1 49/67/1
f 55/70/1 56/66/1 60/71/1 59/72/1
f 50/68/1 49/67/1 53/73/1 54/74/1
f 51/69/1 52/62/1 56/66/1 55/70/1
f 49/67/1 51/69/1 55/70/1 53/73/1
f 60/71/1 58/75/1 62/76/1 64/77/1
f 53/73/1 55/70/1 59/72/1 57/78/1
f 56/66/1 54/65/1 58/75/1 60/71/1
f 54/74/1 53/73/1 57/78/1 58/79/1
f 62/80/14 61/81/14 65/82/14 66/83/14
f 58/79/1 57/78/1 61/81/1 62/80/1
f 59/72/1 60/71/1 64/77/1 63/84/1
f 57/78/1 59/72/1 63/84/1 61/81/1
f 67/85/15 68/86/15 72/87/15 71/88/15
f 63/84/16 64/77/16 68/86/16 67/85/16
f 61/81/17 63/84/17 67/85/17 65/82/17
f 64/77/18 62/76/18 66/89/18 68/86/18
f 71/88/19 72/90/19 70/91/19 69/92/19
f 65/82/20 67/85/20 71/88/20 69/92/20
f 68/86/21 66/89/21 70/93/21 72/87/21
f 66/83/22 65/82/22 69/92/22 70/94/22
